<svg width="78" height="32" viewBox="0 0 78 32" fill="none" xmlns="http://www.w3.org/2000/svg">
<g clip-path="url(#clip0_849_27006)">
<path d="M71.052 11.6434H74.8143V25.447H71.052V11.6434ZM72.9331 9.83855C72.5603 9.83855 72.2129 9.75382 71.8909 9.58434C71.5773 9.4064 71.3274 9.17337 71.1409 8.88527C70.963 8.58869 70.874 8.27093 70.874 7.93199C70.874 7.58457 70.963 7.26257 71.1409 6.96599C71.3274 6.66942 71.5773 6.43639 71.8909 6.26692C72.2129 6.08897 72.5603 6 72.9331 6C73.2975 6 73.6364 6.08897 73.95 6.26692C74.2635 6.43639 74.5092 6.66942 74.6872 6.96599C74.8736 7.26257 74.9668 7.58457 74.9668 7.93199C74.9668 8.27093 74.8736 8.58869 74.6872 8.88527C74.5092 9.17337 74.2635 9.4064 73.95 9.58434C73.6364 9.75382 73.2975 9.83855 72.9331 9.83855Z" fill="#FDFEFF"/>
<path d="M60.743 25.6757C59.6753 25.6757 58.7178 25.4003 57.8705 24.8496C57.0231 24.2903 56.3537 23.4768 55.8622 22.4092C55.3707 21.333 55.125 20.0493 55.125 18.5579C55.125 17.0326 55.375 15.7404 55.8749 14.6812C56.3749 13.6135 57.0485 12.8128 57.8959 12.2789C58.7517 11.7366 59.7008 11.4655 60.743 11.4655C61.7853 11.4655 62.6199 11.707 63.247 12.19C63.874 12.673 64.3443 13.2619 64.6578 13.9567H64.7849V7.04224H68.5472V25.447H64.8358V23.2353H64.6578C64.3358 23.9217 63.8571 24.5021 63.2215 24.9767C62.586 25.4427 61.7598 25.6757 60.743 25.6757ZM61.9124 22.6761C62.5309 22.6761 63.0606 22.5066 63.5012 22.1677C63.9418 21.8202 64.2765 21.3372 64.5053 20.7187C64.7426 20.0916 64.8612 19.3629 64.8612 18.5325C64.8612 17.2784 64.6028 16.287 64.0859 15.5582C63.569 14.8295 62.8445 14.4651 61.9124 14.4651C60.9803 14.4651 60.26 14.8337 59.7516 15.5709C59.2432 16.3081 58.989 17.2953 58.989 18.5325C58.989 19.7866 59.2432 20.7907 59.7516 21.5448C60.26 22.299 60.9803 22.6761 61.9124 22.6761Z" fill="#FDFEFF"/>
<path d="M47.0281 25.7266C45.6553 25.7266 44.4606 25.43 43.4437 24.8368C42.4269 24.2437 41.6431 23.409 41.0923 22.3329C40.5415 21.2483 40.2661 19.9984 40.2661 18.5833C40.2661 17.1682 40.5373 15.9226 41.0796 14.8464C41.6304 13.7703 42.4142 12.9399 43.431 12.3552C44.4563 11.762 45.6553 11.4655 47.0281 11.4655C48.4008 11.4655 49.5998 11.762 50.6251 12.3552C51.6504 12.9399 52.4385 13.7703 52.9893 14.8464C53.5401 15.9226 53.8154 17.1682 53.8154 18.5833C53.8154 19.9984 53.5401 21.2483 52.9893 22.3329C52.4385 23.409 51.6504 24.2437 50.6251 24.8368C49.5998 25.43 48.4008 25.7266 47.0281 25.7266ZM47.0535 22.8032C47.6805 22.8032 48.2144 22.6252 48.655 22.2693C49.0956 21.905 49.4261 21.405 49.6464 20.7695C49.8667 20.134 49.9769 19.4052 49.9769 18.5833C49.9769 17.7614 49.8667 17.0326 49.6464 16.3971C49.4261 15.7531 49.0956 15.2489 48.655 14.8846C48.2144 14.5202 47.6805 14.338 47.0535 14.338C46.418 14.338 45.8757 14.5202 45.4266 14.8846C44.9859 15.2489 44.6512 15.7531 44.4224 16.3971C44.1936 17.0326 44.0792 17.7614 44.0792 18.5833C44.0792 19.3968 44.1936 20.1255 44.4224 20.7695C44.6512 21.405 44.9859 21.905 45.4266 22.2693C45.8757 22.6252 46.418 22.8032 47.0535 22.8032Z" fill="#FDFEFF"/>
<path d="M38.321 25.447H35.0163L26.9325 13.7533H26.7799V25.447H22.9668V7.04224H26.3224L34.3554 18.7358H34.5333V7.04224H38.321V25.447Z" fill="#FDFEFF"/>
<circle cx="4.64457" cy="21.3552" r="3.78325" transform="rotate(-74.7571 4.64457 21.3552)" fill="#FDFEFF"/>
<circle cx="15.355" cy="10.8297" r="3.78325" transform="rotate(-74.7571 15.355 10.8297)" fill="#FDFEFF"/>
<path fill-rule="evenodd" clip-rule="evenodd" d="M11.5715 10.7963C11.532 15.3361 9.21676 17.6113 4.67704 17.5717L8.42717 21.3878C8.46674 16.848 10.7819 14.5729 15.3217 14.6124L11.5715 10.7963Z" fill="#FDFEFF"/>
</g>
<defs>
<clipPath id="clip0_849_27006">
<rect width="78" height="32" fill="white"/>
</clipPath>
</defs>
</svg>
