<svg width="59" height="24" viewBox="0 0 59 24" fill="none" xmlns="http://www.w3.org/2000/svg">
<path d="M54.539 8.23258H57.3607V18.5852H54.539V8.23258ZM55.9498 6.87891C55.6702 6.87891 55.4096 6.81536 55.1681 6.68826C54.933 6.5548 54.7455 6.38003 54.6057 6.16395C54.4722 5.94152 54.4055 5.7032 54.4055 5.44899C54.4055 5.18843 54.4722 4.94693 54.6057 4.7245C54.7455 4.50206 54.933 4.32729 55.1681 4.20019C55.4096 4.06673 55.6702 4 55.9498 4C56.2231 4 56.4773 4.06673 56.7125 4.20019C56.9476 4.32729 57.1319 4.50206 57.2654 4.7245C57.4052 4.94693 57.4751 5.18843 57.4751 5.44899C57.4751 5.7032 57.4052 5.94152 57.2654 6.16395C57.1319 6.38003 56.9476 6.5548 56.7125 6.68826C56.4773 6.81536 56.2231 6.87891 55.9498 6.87891Z" fill="#111017"/>
<path d="M46.8073 18.7569C46.0065 18.7569 45.2884 18.5503 44.6528 18.1372C44.0173 17.7178 43.5153 17.1077 43.1467 16.3069C42.7781 15.4998 42.5938 14.537 42.5938 13.4185C42.5938 12.2745 42.7812 11.3054 43.1562 10.511C43.5311 9.71021 44.0364 9.10964 44.6719 8.70926C45.3138 8.30253 46.0256 8.09916 46.8073 8.09916C47.589 8.09916 48.2149 8.28029 48.6852 8.64253C49.1555 9.00478 49.5082 9.44647 49.7434 9.9676H49.8387V4.78174H52.6604V18.5853H49.8768V16.9266H49.7434C49.5019 17.4413 49.1428 17.8767 48.6662 18.2326C48.1895 18.5821 47.5699 18.7569 46.8073 18.7569ZM47.6843 16.5071C48.1482 16.5071 48.5454 16.38 48.8759 16.1258C49.2064 15.8652 49.4574 15.503 49.629 15.0391C49.8069 14.5688 49.8959 14.0222 49.8959 13.3994C49.8959 12.4588 49.7021 11.7153 49.3144 11.1687C48.9267 10.6222 48.3834 10.3489 47.6843 10.3489C46.9852 10.3489 46.445 10.6254 46.0637 11.1783C45.6824 11.7312 45.4917 12.4716 45.4917 13.3994C45.4917 14.34 45.6824 15.0931 46.0637 15.6587C46.445 16.2243 46.9852 16.5071 47.6843 16.5071Z" fill="#111017"/>
<path d="M36.5212 18.795C35.4916 18.795 34.5955 18.5725 33.8329 18.1277C33.0703 17.6828 32.4824 17.0568 32.0693 16.2497C31.6563 15.4362 31.4497 14.4988 31.4497 13.4375C31.4497 12.3762 31.6531 11.442 32.0598 10.6349C32.4729 9.82774 33.0608 9.20493 33.8234 8.76642C34.5924 8.32155 35.4916 8.09912 36.5212 8.09912C37.5507 8.09912 38.45 8.32155 39.219 8.76642C39.9879 9.20493 40.579 9.82774 40.9921 10.6349C41.4052 11.442 41.6117 12.3762 41.6117 13.4375C41.6117 14.4988 41.4052 15.4362 40.9921 16.2497C40.579 17.0568 39.9879 17.6828 39.219 18.1277C38.45 18.5725 37.5507 18.795 36.5212 18.795ZM36.5402 16.6024C37.0105 16.6024 37.4109 16.4689 37.7414 16.202C38.0718 15.9288 38.3197 15.5538 38.4849 15.0772C38.6502 14.6005 38.7328 14.054 38.7328 13.4375C38.7328 12.821 38.6502 12.2745 38.4849 11.7979C38.3197 11.3149 38.0718 10.9367 37.7414 10.6635C37.4109 10.3902 37.0105 10.2535 36.5402 10.2535C36.0636 10.2535 35.6569 10.3902 35.32 10.6635C34.9896 10.9367 34.7385 11.3149 34.5669 11.7979C34.3954 12.2745 34.3096 12.821 34.3096 13.4375C34.3096 14.0476 34.3954 14.5942 34.5669 15.0772C34.7385 15.5538 34.9896 15.9288 35.32 16.202C35.6569 16.4689 36.0636 16.6024 36.5402 16.6024Z" fill="#111017"/>
<path d="M29.9908 18.5853H27.5122L21.4493 9.81507H21.3349V18.5853H18.4751V4.78174H20.9918L27.0165 13.5519H27.15V4.78174H29.9908V18.5853Z" fill="#111017"/>
<circle cx="3.96565" cy="16.1366" r="3.02664" transform="rotate(-74.7571 3.96565 16.1366)" fill="#111017"/>
<circle cx="12.534" cy="7.71591" r="3.02664" transform="rotate(-74.7571 12.534 7.71591)" fill="#111017"/>
<path fill-rule="evenodd" clip-rule="evenodd" d="M9.50725 7.68922C9.4756 11.3211 7.62342 13.1412 3.99159 13.1096L6.99173 16.1625C7.02339 12.5307 8.87557 10.7105 12.5074 10.7421L9.50725 7.68922Z" fill="#111017"/>
</svg>
