<svg width="20" height="20" viewBox="0 0 20 20" fill="none" xmlns="http://www.w3.org/2000/svg">
<path d="M17.5 10H15.0586C14.622 10 14.4037 10 14.2194 10.0986C14.0352 10.1972 13.9141 10.3789 13.6719 10.7422L12.9948 11.7578C12.7526 12.1211 12.6315 12.3028 12.4472 12.4014C12.263 12.5 12.0447 12.5 11.608 12.5H8.39197C7.95533 12.5 7.73702 12.5 7.55277 12.4014C7.36853 12.3028 7.24743 12.1211 7.00522 11.7578L6.32811 10.7422C6.08591 10.3789 5.96481 10.1972 5.78056 10.0986C5.59632 10 5.378 10 4.94136 10H2.5" stroke="#FDFEFF" stroke-width="1.5"/>
<path d="M4.16667 7.5L2.74408 8.92259C2.5878 9.07887 2.5 9.29083 2.5 9.51184V14.1667C2.5 15.0871 3.24619 15.8333 4.16667 15.8333H15.8333C16.7538 15.8333 17.5 15.0871 17.5 14.1667V9.51184C17.5 9.29083 17.4122 9.07887 17.2559 8.92259L15.8333 7.5" stroke="#FDFEFF" stroke-width="1.5" stroke-linecap="round"/>
<path d="M12.9154 5.83301L9.9987 8.33301L7.08203 5.83301M9.9987 8.33301L9.9987 2.49967" stroke="#FDFEFF" stroke-width="1.5" stroke-linecap="round"/>
</svg>
