<svg width="24" height="24" viewBox="0 0 24 24" fill="none" xmlns="http://www.w3.org/2000/svg">
<g clip-path="url(#clip0_1411_26539)">
<circle cx="12.2231" cy="6.77778" r="2.92778" stroke="#FDFEFF" stroke-width="1.7" stroke-linecap="round"/>
<path d="M14.6384 4.99907C14.8656 4.60544 15.2045 4.28804 15.6122 4.087C16.0198 3.88597 16.4779 3.81033 16.9286 3.86966C17.3792 3.92899 17.8022 4.12062 18.1439 4.42031C18.4856 4.72 18.7308 5.1143 18.8485 5.55334C18.9661 5.99239 18.9509 6.45645 18.8048 6.88686C18.6587 7.31727 18.3882 7.69469 18.0276 7.97139C17.667 8.24809 17.2325 8.41165 16.7789 8.44138C16.3254 8.4711 15.8732 8.36567 15.4795 8.1384" stroke="#FDFEFF" stroke-width="1.7"/>
<path d="M9.80695 4.99907C9.57968 4.60544 9.2408 4.28804 8.83314 4.087C8.42548 3.88597 7.96737 3.81033 7.51673 3.86966C7.06609 3.92899 6.64316 4.12062 6.30142 4.42031C5.95969 4.72 5.7145 5.1143 5.59686 5.55334C5.47921 5.99239 5.49441 6.45645 5.64051 6.88686C5.78661 7.31727 6.05707 7.69469 6.41767 7.97139C6.77828 8.24809 7.21283 8.41165 7.66639 8.44138C8.11995 8.4711 8.57214 8.36567 8.96577 8.1384" stroke="#FDFEFF" stroke-width="1.7"/>
<path d="M12.2228 12.4443C17.3609 12.4443 18.6872 16.6026 19.0296 18.7494C19.1391 19.4362 18.5849 19.9999 17.8895 19.9999H6.55614C5.86067 19.9999 5.30648 19.4362 5.41601 18.7494C5.75839 16.6026 7.08472 12.4443 12.2228 12.4443Z" stroke="#FDFEFF" stroke-width="1.7" stroke-linecap="round"/>
<path d="M16.6309 11.1855V10.3355H16.6308L16.6309 11.1855ZM21.4121 16.1172L22.2367 15.9108L22.2366 15.9107L21.4121 16.1172ZM18.7461 17.4814L17.9296 17.7178L18.1072 18.3314H18.7461V17.4814ZM13.5938 12.5537L12.9661 11.9806L11.9114 13.1355L13.4543 13.3922L13.5938 12.5537ZM16.6309 11.1855V12.0355C17.8386 12.0355 18.688 12.6206 19.3239 13.4674C19.9777 14.3382 20.3677 15.4456 20.5876 16.3237L21.4121 16.1172L22.2366 15.9107C21.9928 14.9371 21.5334 13.5788 20.6833 12.4466C19.8151 11.2905 18.5057 10.3355 16.6309 10.3355V11.1855ZM21.4121 16.1172L20.5876 16.3236C20.6079 16.4049 20.5891 16.4666 20.5442 16.5194C20.494 16.5783 20.4025 16.6314 20.2764 16.6314V17.4814V18.3314C21.495 18.3314 22.5706 17.2445 22.2367 15.9108L21.4121 16.1172ZM20.2764 17.4814V16.6314H18.7461V17.4814V18.3314H20.2764V17.4814ZM18.7461 17.4814L19.5626 17.2451C18.9585 15.158 17.4417 12.3322 13.7332 11.7152L13.5938 12.5537L13.4543 13.3922C16.2285 13.8537 17.4087 15.9181 17.9296 17.7178L18.7461 17.4814ZM13.5938 12.5537L14.2214 13.1269C14.8177 12.4738 15.5841 12.0356 16.6309 12.0355L16.6309 11.1855L16.6308 10.3355C15.0254 10.3356 13.8254 11.0394 12.9661 11.9806L13.5938 12.5537Z" fill="#FDFEFF"/>
<path d="M7.81445 11.1855V10.3355H7.81444L7.81445 11.1855ZM10.8516 12.5537L10.9911 13.3922L12.5339 13.1355L11.4792 11.9805L10.8516 12.5537ZM5.7002 17.4814V18.3314H6.33905L6.51668 17.7178L5.7002 17.4814ZM4.16895 17.4814L4.16892 18.3314H4.16895V17.4814ZM3.03418 16.1172L2.20964 15.9107L2.20964 15.9107L3.03418 16.1172ZM7.81445 11.1855V12.0355C8.86121 12.0355 9.62751 12.4738 10.2239 13.1269L10.8516 12.5537L11.4792 11.9805C10.6199 11.0395 9.42002 10.3355 7.81445 10.3355V11.1855ZM10.8516 12.5537L10.712 11.7152C7.00375 12.3323 5.48777 15.1582 4.88371 17.2451L5.7002 17.4814L6.51668 17.7178C7.03764 15.918 8.21725 13.8537 10.9911 13.3922L10.8516 12.5537ZM5.7002 17.4814V16.6314H4.16895V17.4814V18.3314H5.7002V17.4814ZM4.16895 17.4814L4.16897 16.6314C4.04293 16.6314 3.95174 16.5783 3.90188 16.5197C3.85723 16.4672 3.83825 16.4054 3.85872 16.3237L3.03418 16.1172L2.20964 15.9107C1.87583 17.2437 2.94936 18.3314 4.16892 18.3314L4.16895 17.4814ZM3.03418 16.1172L3.85872 16.3237C4.07863 15.4455 4.4684 14.3381 5.12206 13.4673C5.75773 12.6206 6.60686 12.0356 7.81447 12.0355L7.81445 11.1855L7.81444 10.3355C5.93959 10.3356 4.63044 11.2906 3.76252 12.4467C2.91258 13.5789 2.45343 14.9372 2.20964 15.9107L3.03418 16.1172Z" fill="#FDFEFF"/>
</g>
<defs>
<clipPath id="clip0_1411_26539">
<rect width="24" height="24" fill="white"/>
</clipPath>
</defs>
</svg>
