<svg width="32" height="32" viewBox="0 0 32 32" fill="none" xmlns="http://www.w3.org/2000/svg">
<path d="M13.332 20L13.332 16" stroke="#E4E7EC" stroke-width="2.4" stroke-linecap="round"/>
<path d="M18.668 20L18.668 16" stroke="#E4E7EC" stroke-width="2.4" stroke-linecap="round"/>
<path d="M4 9.33301H28C26.7575 9.33301 26.1362 9.33301 25.6462 9.536C24.9928 9.80665 24.4736 10.3258 24.203 10.9792C24 11.4692 24 12.0905 24 13.333V21.333C24 23.8472 24 25.1042 23.219 25.8853C22.4379 26.6663 21.1808 26.6663 18.6667 26.6663H13.3333C10.8192 26.6663 9.5621 26.6663 8.78105 25.8853C8 25.1042 8 23.8472 8 21.333V13.333C8 12.0905 8 11.4692 7.79701 10.9792C7.52636 10.3258 7.00723 9.80665 6.35382 9.536C5.86377 9.33301 5.24251 9.33301 4 9.33301Z" stroke="#E4E7EC" stroke-width="2.4" stroke-linecap="round"/>
<path d="M13.4255 4.49412C13.5774 4.35237 13.9122 4.2271 14.3779 4.13776C14.8437 4.04843 15.4143 4 16.0013 4C16.5883 4 17.1589 4.04842 17.6247 4.13776C18.0904 4.2271 18.4252 4.35236 18.5771 4.49412" stroke="#E4E7EC" stroke-width="2.4" stroke-linecap="round"/>
</svg>
