<svg width="28" height="28" viewBox="0 0 28 28" fill="none" xmlns="http://www.w3.org/2000/svg">
<path d="M2.58594 13.3457H25.415" stroke="#F9FAFB" stroke-width="2.39705" stroke-miterlimit="1.41421"/>
<path d="M2.58594 7.48614C2.58594 6.2076 2.58594 5.56833 2.83476 5.07999C3.05363 4.65043 3.40287 4.30119 3.83243 4.08232C4.32077 3.8335 4.96004 3.8335 6.23859 3.8335H10.4052C10.8883 3.8335 11.1299 3.8335 11.355 3.89176C11.5545 3.9434 11.7438 4.02842 11.9149 4.14324C12.108 4.27279 12.2684 4.45335 12.5894 4.81446L13.8896 6.2775C14.2106 6.63861 14.371 6.81917 14.5641 6.94872C14.7352 7.06354 14.9246 7.14857 15.1241 7.2002C15.3492 7.25847 15.5907 7.25847 16.0738 7.25847H21.7624C23.0409 7.25847 23.6802 7.25847 24.1685 7.50729C24.5981 7.72616 24.9473 8.0754 25.1662 8.50496C25.415 8.9933 25.415 9.63257 25.415 10.9111V20.3471C25.415 21.6257 25.415 22.265 25.1662 22.7533C24.9473 23.1829 24.5981 23.5321 24.1685 23.751C23.6802 23.9998 23.0409 23.9998 21.7624 23.9998H6.23859C4.96004 23.9998 4.32077 23.9998 3.83243 23.751C3.40287 23.5321 3.05363 23.1829 2.83476 22.7533C2.58594 22.265 2.58594 21.6257 2.58594 20.3471V7.48614Z" stroke="#F9FAFB" stroke-width="2.39705"/>
</svg>
