<svg width="24" height="24" viewBox="0 0 24 24" fill="none" xmlns="http://www.w3.org/2000/svg">
<path d="M9.72625 14.8048L12.1448 15.5672C12.6315 15.7206 12.8749 15.7973 13.0479 15.9703C13.221 16.1434 13.2977 16.3867 13.4511 16.8734L14.2134 19.292C14.9595 21.6591 15.3325 22.8427 16.0534 22.8544C16.7742 22.8661 17.1854 21.6952 18.0079 19.3536L21.1444 10.4236C21.7435 8.71783 22.0431 7.86493 21.5982 7.42005C21.1533 6.97516 20.3004 7.27473 18.5946 7.87387L9.66469 11.0104C7.32301 11.8328 6.15217 12.2441 6.16387 12.9649C6.17556 13.6857 7.35912 14.0588 9.72625 14.8048Z" stroke="#FDFEFF" stroke-width="1.8"/>
</svg>
