<svg width="28" height="28" viewBox="0 0 28 28" fill="none" xmlns="http://www.w3.org/2000/svg">
<path d="M2.60156 7.648C2.60156 6.37108 2.60156 5.73262 2.85007 5.2449C3.06866 4.81589 3.41745 4.4671 3.84646 4.24851C4.33418 4 4.97264 4 6.24956 4H10.4109C10.8933 4 11.1346 4 11.3594 4.05819C11.5587 4.10976 11.7477 4.19468 11.9186 4.30935C12.1115 4.43874 12.2717 4.61906 12.5923 4.97971L13.8909 6.4409C14.2114 6.80155 14.3716 6.98187 14.5645 7.11126C14.7354 7.22593 14.9245 7.31085 15.1237 7.36242C15.3485 7.42061 15.5898 7.42061 16.0723 7.42061H21.7536C23.0305 7.42061 23.6689 7.42061 24.1567 7.66912C24.5857 7.88771 24.9345 8.2365 25.1531 8.66551C25.4016 9.15323 25.4016 9.79169 25.4016 11.0686V20.4926C25.4016 21.7695 25.4016 22.408 25.1531 22.8957C24.9345 23.3247 24.5857 23.6735 24.1567 23.8921C23.6689 24.1406 23.0305 24.1406 21.7536 24.1406H6.24957C4.97264 24.1406 4.33418 24.1406 3.84646 23.8921C3.41745 23.6735 3.06866 23.3247 2.85007 22.8957C2.60156 22.408 2.60156 21.7695 2.60156 20.4926V7.648Z" fill="#F9FAFB" stroke="#F9FAFB" stroke-width="2.736"/>
<path d="M2.60156 14H25.4016" stroke="#F9FAFB" stroke-width="2.736" stroke-miterlimit="1.41421"/>
</svg>
