<svg width="78" height="32" viewBox="0 0 78 32" fill="none" xmlns="http://www.w3.org/2000/svg">
<path d="M2.66406 23.1688C4.20847 16.7536 11.6216 10.1006 15.1381 12.9518C19.5338 16.5158 13.7084 24.7329 10.5007 22.0005C6.2757 18.4014 19.8902 14.7339 19.8902 8.4375" stroke="#FDFEFF" stroke-width="2.5"/>
<circle cx="19.8888" cy="8.43767" r="1.30681" fill="#111017"/>
<circle cx="19.9084" cy="7.30681" r="1.30681" fill="#FDFEFF"/>
<path d="M27.6494 7.60449C28.1434 7.60449 28.5693 7.70142 28.9307 7.91016C29.2921 8.11904 29.5806 8.43491 29.8105 8.8584L29.8115 8.85938L36.377 21.1289L36.3818 21.1387L36.3848 21.1484C36.4206 21.2561 36.4442 21.311 36.4668 21.3408C36.4758 21.3526 36.4827 21.3566 36.4863 21.3584C36.4893 21.3598 36.4949 21.3603 36.5049 21.3613C36.5062 21.3475 36.5088 21.3295 36.5088 21.3057V7.88379H39.0225V21.6777C39.0225 23.1712 37.961 24.0176 36.8223 24.0176C35.898 24.0175 35.082 23.6246 34.6143 22.7383V22.7393L28.0723 10.4463L28.0654 10.4326L28.0615 10.417C28.0382 10.324 28.0186 10.2746 28.001 10.249C27.995 10.2404 27.9912 10.2379 27.9902 10.2373C27.9899 10.2371 27.989 10.2367 27.9873 10.2363C27.9854 10.2359 27.9816 10.2354 27.9756 10.2354C27.9546 10.2354 27.9457 10.2381 27.9434 10.2393C27.9424 10.2397 27.9411 10.2409 27.9385 10.2451C27.9295 10.2599 27.917 10.299 27.917 10.3867V23.7383H25.4033V9.96777C25.4033 9.22887 25.6461 8.63511 26.0547 8.22656C26.4627 7.81863 27.0264 7.60459 27.6494 7.60449Z" fill="#FDFEFF" stroke="#FDFEFF" stroke-width="0.255554"/>
<path d="M74.7939 8.20215V23.8223H72.1162V8.20215H74.7939Z" fill="#FDFEFF" stroke="#FDFEFF" stroke-width="0.260169"/>
<path d="M62.0918 7.95117C64.58 7.95117 66.6684 8.73466 68.1357 10.1152C69.6038 11.4965 70.4404 13.466 70.4404 15.8164C70.4404 18.2964 69.5285 20.301 68.0088 21.6846C66.4903 23.0669 64.3737 23.8213 61.9775 23.8213H56.6514V7.95117H62.0918ZM59.2461 21.3945H61.9775C63.6211 21.3945 65.0705 20.8672 66.1074 19.9111C67.1428 18.9563 67.7763 17.5652 67.7764 15.8164C67.7764 14.1947 67.1936 12.8435 66.1973 11.8975C65.2004 10.9508 63.7802 10.4014 62.0918 10.4014H59.2461V21.3945Z" fill="#FDFEFF" stroke="#FDFEFF" stroke-width="0.260169"/>
<path d="M37.3008 22.8C42.7643 22.8 53.6601 23.3272 53.6601 14.4251C53.6601 6.61998 42.2126 6.70092 42.2126 14.4251C42.2126 23.3272 52.6194 22.6507 57.3024 22.6507" stroke="#FDFEFF" stroke-width="2.60169"/>
</svg>
