<svg width="28" height="28" viewBox="0 0 28 28" fill="none" xmlns="http://www.w3.org/2000/svg">
<path d="M15.7051 2.41528L16.0913 1.43889L16.0912 1.43885L15.7051 2.41528ZM16.3135 2.96509L17.2468 2.48398L17.2467 2.48388L16.3135 2.96509ZM16.4902 3.92212L15.4454 4.02645L16.4902 3.92212ZM16.835 5.62134L16.0001 6.25807L16.0003 6.2584L16.835 5.62134ZM17.918 6.06958L18.0578 7.11023L18.0585 7.11013L17.918 6.06958ZM19.3633 5.11157L18.6985 4.29881L19.3633 5.11157ZM20.165 4.56079L19.8458 3.56049L19.8453 3.56065L20.165 4.56079ZM20.9834 4.60181L21.4007 3.63829L21.4004 3.63818L20.9834 4.60181ZM21.7275 5.22974L20.9851 5.9722L21.7275 5.22974ZM23.3975 7.01489L24.3609 6.59732L24.3608 6.5972L23.3975 7.01489ZM23.4385 7.83423L24.4386 8.15409L24.4386 8.15388L23.4385 7.83423ZM22.8877 8.63599L22.0751 7.97101L22.8877 8.63599ZM21.9297 10.0793L20.8892 9.93853L20.8891 9.93888L21.9297 10.0793ZM22.3789 11.1633L21.7423 11.9983L21.7425 11.9985L22.3789 11.1633ZM24.0771 11.5071L24.1817 10.4623L24.0771 11.5071ZM25.0332 11.6848L25.5144 10.7516L25.5144 10.7516L25.0332 11.6848ZM25.583 12.2932L26.5595 11.9073L26.5595 11.9072L25.583 12.2932ZM25.665 13.262H26.715H25.665ZM25.665 14.7375H26.715H25.665ZM25.583 15.7063L26.5594 16.0925L26.5596 16.0921L25.583 15.7063ZM25.0332 16.3147L25.5141 17.2481L25.5144 17.248L25.0332 16.3147ZM24.0771 16.4915L24.1815 17.5363L24.0771 16.4915ZM22.3789 16.8352L21.7427 15.9999L21.7425 16L22.3789 16.8352ZM21.9297 17.9192L20.8891 18.0595L20.8891 18.0596L21.9297 17.9192ZM22.8877 19.3635L23.7004 18.6986L22.8877 19.3635ZM23.4385 20.1653L24.4387 19.8457L24.4387 19.8457L23.4385 20.1653ZM23.3975 20.9846L24.3608 21.4023L24.3609 21.4022L23.3975 20.9846ZM20.9844 23.3977L21.4017 24.3612L21.4022 24.361L20.9844 23.3977ZM20.165 23.4387L19.8453 24.4389L19.8456 24.439L20.165 23.4387ZM19.3633 22.8879L18.6984 23.7006L19.3633 22.8879ZM17.918 21.929L18.0584 20.8884L18.0578 20.8883L17.918 21.929ZM16.835 22.3782L16.0001 21.7414L16 21.7415L16.835 22.3782ZM16.4902 24.0774L15.4454 23.9731L16.4902 24.0774ZM16.3125 25.0344L17.2456 25.5159L17.2457 25.5157L16.3125 25.0344ZM15.7051 25.5842L16.0912 26.5606L16.0913 26.5606L15.7051 25.5842ZM12.292 25.5842L11.9059 26.5607L11.906 26.5607L12.292 25.5842ZM11.6836 25.0344L10.7503 25.5156L10.7504 25.5158L11.6836 25.0344ZM11.5059 24.0784L10.4611 24.1829L11.5059 24.0784ZM11.1621 22.3782L11.9969 21.7413L11.9968 21.7411L11.1621 22.3782ZM10.0791 21.9299L9.93935 20.8893L9.93901 20.8893L10.0791 21.9299ZM8.63379 22.8889L9.29879 23.7015L8.63379 22.8889ZM7.83203 23.4397L8.15165 24.4399L8.15172 24.4398L7.83203 23.4397ZM7.0127 23.3987L6.59509 24.3621L6.59526 24.3621L7.0127 23.3987ZM6.26953 22.7708L7.01199 22.0283L6.26953 22.7708ZM5.22754 21.7288L4.48508 22.4712L5.22754 21.7288ZM4.59961 20.9846L3.63598 21.4017L3.63609 21.4019L4.59961 20.9846ZM4.55859 20.1663L3.55845 19.8465L3.55828 19.8471L4.55859 20.1663ZM5.10938 19.3635L5.92213 20.0283L5.10938 19.3635ZM6.06738 17.9192L7.10795 18.0596L7.10799 18.0593L6.06738 17.9192ZM5.61914 16.8352L6.25578 16.0002L6.25565 16.0001L5.61914 16.8352ZM3.91992 16.4915L3.81557 17.5363L3.91992 16.4915ZM2.96387 16.3147L2.48272 17.248L2.48282 17.248L2.96387 16.3147ZM2.41406 15.7063L1.43755 16.0922L1.43766 16.0925L2.41406 15.7063ZM2.33203 14.7375H1.28203H2.33203ZM2.33203 13.262H1.28203H2.33203ZM2.41406 12.2932L1.4376 11.9072L1.43759 11.9072L2.41406 12.2932ZM2.96387 11.6848L2.48269 10.7516L2.48254 10.7516L2.96387 11.6848ZM3.91992 11.5071L3.81536 10.4623L3.91992 11.5071ZM5.61914 11.1633L6.25595 11.9982L6.25599 11.9981L5.61914 11.1633ZM6.06738 10.0803L7.10803 9.94052L7.108 9.94029L6.06738 10.0803ZM5.10938 8.63501L4.2967 9.29989L5.10938 8.63501ZM4.55859 7.83325L3.55836 8.15268L3.55844 8.15294L4.55859 7.83325ZM4.59961 7.01392L3.63631 6.59611L3.63614 6.59652L4.59961 7.01392ZM5.22754 6.27075L4.48508 5.52829L5.22754 6.27075ZM6.26953 5.22876L5.52707 4.4863L6.26953 5.22876ZM7.0127 4.60083L6.5953 3.63736L6.59489 3.63753L7.0127 4.60083ZM7.83203 4.55981L8.15171 3.55966L8.15146 3.55958L7.83203 4.55981ZM8.63379 5.1106L9.29867 4.29792L8.63379 5.1106ZM10.0791 6.0686L9.93906 7.10922L9.93929 7.10925L10.0791 6.0686ZM11.1621 5.62036L11.9969 6.25721L11.997 6.25718L11.1621 5.62036ZM11.5059 3.92114L10.4611 3.81658L11.5059 3.92114ZM11.6836 2.96509L10.7504 2.48376L10.7503 2.48391L11.6836 2.96509ZM12.292 2.41528L11.906 1.43881L11.906 1.43882L12.292 2.41528ZM13.2607 2.33325V1.28325V2.33325ZM13.999 9.33325L13.9991 8.28325H13.999V9.33325ZM9.33203 14.0002H8.28203V14.0003L9.33203 14.0002ZM13.999 18.6663V19.7163H13.9991L13.999 18.6663ZM18.665 14.0002L19.715 14.0003V14.0002H18.665ZM14.7354 2.33325V3.38325C15.0032 3.38325 15.1532 3.38387 15.2629 3.39125C15.3624 3.39793 15.3572 3.40685 15.319 3.39172L15.7051 2.41528L16.0912 1.43885C15.8462 1.34198 15.6105 1.30988 15.4038 1.29598C15.2076 1.28278 14.976 1.28325 14.7354 1.28325V2.33325ZM15.7051 2.41528L15.3189 3.39168C15.3468 3.40274 15.3681 3.42284 15.3802 3.4463L16.3135 2.96509L17.2467 2.48388C17.0001 2.00554 16.5883 1.63548 16.0913 1.43889L15.7051 2.41528ZM16.3135 2.96509L15.3802 3.4462C15.3606 3.40815 15.3688 3.40098 15.3853 3.50007C15.4035 3.60949 15.4187 3.75862 15.4454 4.02645L16.4902 3.92212L17.535 3.81779C17.5113 3.57967 17.489 3.34906 17.4569 3.15584C17.4231 2.95229 17.3682 2.71959 17.2468 2.48398L16.3135 2.96509ZM16.4902 3.92212L15.4454 4.02645C15.4915 4.48811 15.5317 4.89605 15.59 5.21893C15.6466 5.53177 15.7437 5.92192 16.0001 6.25807L16.835 5.62134L17.6699 4.98461C17.7259 5.05802 17.6984 5.07733 17.6566 4.84562C17.6166 4.62395 17.5846 4.31365 17.535 3.81779L16.4902 3.92212ZM16.835 5.62134L16.0003 6.2584C16.4836 6.89161 17.2693 7.21617 18.0578 7.11023L17.918 6.06958L17.7781 5.02893C17.7361 5.03458 17.6947 5.01716 17.6696 4.98427L16.835 5.62134ZM17.918 6.06958L18.0585 7.11013C18.4775 7.05352 18.822 6.84607 19.0829 6.66494C19.3522 6.47794 19.6691 6.21792 20.0281 5.92433L19.3633 5.11157L18.6985 4.29881C18.3126 4.61445 18.0705 4.81132 17.8852 4.93996C17.6915 5.07447 17.6858 5.04141 17.7774 5.02903L17.918 6.06958ZM19.3633 5.11157L20.0281 5.92433C20.2358 5.75437 20.3521 5.65985 20.442 5.59573C20.5234 5.53767 20.5247 5.54817 20.4848 5.56093L20.165 4.56079L19.8453 3.56065C19.5938 3.64107 19.3908 3.76606 19.2226 3.88603C19.0629 3.99994 18.8841 4.14698 18.6985 4.29881L19.3633 5.11157ZM20.165 4.56079L20.4842 5.5611C20.5105 5.55273 20.5399 5.55397 20.5664 5.56544L20.9834 4.60181L21.4004 3.63818C20.9093 3.42564 20.3569 3.3974 19.8458 3.56049L20.165 4.56079ZM20.9834 4.60181L20.5661 5.56532C20.5284 5.54899 20.5312 5.53912 20.6062 5.60473C20.6891 5.67713 20.7957 5.78279 20.9851 5.9722L21.7275 5.22974L22.47 4.48727C22.2997 4.31699 22.1362 4.15287 21.988 4.02332C21.8319 3.88698 21.6425 3.743 21.4007 3.63829L20.9834 4.60181ZM21.7275 5.22974L20.9851 5.9722L22.0271 7.01419L22.7695 6.27173L23.512 5.52927L22.47 4.48727L21.7275 5.22974ZM22.7695 6.27173L22.0271 7.01419C22.2167 7.2038 22.3224 7.31019 22.3951 7.39324C22.461 7.46855 22.4508 7.47096 22.4341 7.43258L23.3975 7.01489L24.3608 6.5972C24.2558 6.35503 24.1113 6.16553 23.9752 6.01003C23.8458 5.86228 23.6817 5.69899 23.512 5.52927L22.7695 6.27173ZM23.3975 7.01489L22.4341 7.43246C22.4455 7.45876 22.4468 7.48808 22.4383 7.51457L23.4385 7.83423L24.4386 8.15388C24.6021 7.6424 24.5741 7.08923 24.3609 6.59732L23.3975 7.01489ZM23.4385 7.83423L22.4384 7.51437C22.4511 7.47463 22.4615 7.47603 22.4035 7.55739C22.3394 7.64718 22.2449 7.76351 22.0751 7.97101L22.8877 8.63599L23.7003 9.30097C23.8523 9.11519 23.9993 8.93642 24.1133 8.77655C24.2333 8.60824 24.3582 8.40539 24.4386 8.15409L23.4385 7.83423ZM22.8877 8.63599L22.0751 7.97101C21.7819 8.32928 21.5219 8.64573 21.335 8.91444C21.1539 9.17475 20.9459 9.51919 20.8892 9.93853L21.9297 10.0793L22.9702 10.2202C22.9577 10.3123 22.9243 10.3071 23.0589 10.1136C23.1877 9.92846 23.3845 9.68683 23.7003 9.30097L22.8877 8.63599ZM21.9297 10.0793L20.8891 9.93888C20.7824 10.7293 21.109 11.5155 21.7423 11.9983L22.3789 11.1633L23.0155 10.3283C22.9817 10.3025 22.9647 10.2608 22.9702 10.2198L21.9297 10.0793ZM22.3789 11.1633L21.7425 11.9985C22.079 12.2549 22.4695 12.3516 22.7817 12.4077C23.104 12.4657 23.5117 12.5057 23.9726 12.5519L24.0771 11.5071L24.1817 10.4623C23.6856 10.4126 23.3755 10.3808 23.1535 10.3409C22.9215 10.2992 22.9414 10.2719 23.0153 10.3281L22.3789 11.1633ZM24.0771 11.5071L23.9726 12.5519C24.2393 12.5786 24.3883 12.594 24.4968 12.6122C24.5951 12.6288 24.5889 12.6371 24.552 12.618L25.0332 11.6848L25.5144 10.7516C25.2801 10.6308 25.0486 10.5755 24.8447 10.5413C24.651 10.5087 24.4207 10.4862 24.1817 10.4623L24.0771 11.5071ZM25.0332 11.6848L24.552 12.618C24.5756 12.6302 24.5956 12.6515 24.6065 12.6792L25.583 12.2932L26.5595 11.9072C26.3628 11.4098 25.9927 10.9982 25.5144 10.7516L25.0332 11.6848ZM25.583 12.2932L24.6065 12.6791C24.5914 12.641 24.6003 12.636 24.607 12.7351C24.6144 12.8447 24.615 12.9944 24.615 13.262H25.665H26.715C26.715 12.8482 26.7328 12.3458 26.5595 11.9073L25.583 12.2932ZM25.665 13.262H24.615V14.7375H25.665H26.715V13.262H25.665ZM25.665 14.7375H24.615C24.615 15.0049 24.6144 15.1547 24.607 15.2643C24.6003 15.3636 24.5914 15.3586 24.6064 15.3205L25.583 15.7063L26.5596 16.0921C26.7327 15.6538 26.715 15.1513 26.715 14.7375H25.665ZM25.583 15.7063L24.6066 15.3201C24.5955 15.3481 24.5755 15.3694 24.5521 15.3814L25.0332 16.3147L25.5144 17.248C25.9928 17.0013 26.3628 16.5895 26.5594 16.0925L25.583 15.7063ZM25.0332 16.3147L24.5523 15.3813C24.5901 15.3618 24.5971 15.3701 24.4983 15.3865C24.3891 15.4047 24.2401 15.42 23.9728 15.4467L24.0771 16.4915L24.1815 17.5363C24.4196 17.5125 24.6499 17.4902 24.8431 17.458C25.0466 17.4242 25.2789 17.3693 25.5141 17.2481L25.0332 16.3147ZM24.0771 16.4915L23.9728 15.4467C23.5118 15.4927 23.1041 15.5327 22.7817 15.5908C22.4693 15.647 22.079 15.7437 21.7427 15.9999L22.3789 16.8352L23.0151 17.6705C22.9414 17.7266 22.9218 17.6993 23.1537 17.6575C23.3755 17.6176 23.6857 17.5858 24.1815 17.5363L24.0771 16.4915ZM22.3789 16.8352L21.7425 16C21.1086 16.4831 20.7826 17.2695 20.8891 18.0595L21.9297 17.9192L22.9703 17.7789C22.9647 17.7374 22.9819 17.6959 23.0153 17.6704L22.3789 16.8352ZM21.9297 17.9192L20.8891 18.0596C20.9457 18.4789 21.1535 18.8235 21.3346 19.0841C21.5215 19.3531 21.7816 19.6698 22.075 20.0284L22.8877 19.3635L23.7004 18.6986C23.3846 18.3127 23.1877 18.0708 23.059 17.8856C22.9244 17.6919 22.9578 17.6867 22.9703 17.7788L21.9297 17.9192ZM22.8877 19.3635L22.075 20.0284C22.245 20.2362 22.3395 20.3524 22.4036 20.4423C22.4616 20.5236 22.4511 20.5248 22.4383 20.4849L23.4385 20.1653L24.4387 19.8457C24.3583 19.5941 24.2333 19.3912 24.1133 19.2229C23.9994 19.0632 23.8523 18.8844 23.7004 18.6986L22.8877 19.3635ZM23.4385 20.1653L22.4383 20.4849C22.4468 20.5114 22.4454 20.5408 22.4341 20.567L23.3975 20.9846L24.3609 21.4022C24.5741 20.9103 24.6021 20.3571 24.4387 19.8457L23.4385 20.1653ZM23.3975 20.9846L22.4341 20.5669C22.4507 20.5286 22.461 20.531 22.3951 20.6063C22.3224 20.6893 22.2167 20.7957 22.0271 20.9853L22.7695 21.7278L23.512 22.4702C23.6817 22.3005 23.8458 22.1372 23.9752 21.9895C24.1113 21.834 24.2558 21.6445 24.3608 21.4023L23.3975 20.9846ZM22.7695 21.7278L22.0271 20.9853L20.9851 22.0273L21.7275 22.7698L22.47 23.5122L23.512 22.4702L22.7695 21.7278ZM21.7275 22.7698L20.9851 22.0273C20.7954 22.217 20.689 22.3227 20.606 22.3953C20.5308 22.4611 20.5284 22.451 20.5666 22.4344L20.9844 23.3977L21.4022 24.361C21.6442 24.256 21.8337 24.1116 21.9892 23.9754C22.1369 23.8461 22.3002 23.682 22.47 23.5122L21.7275 22.7698ZM20.9844 23.3977L20.567 22.4342C20.5408 22.4456 20.5109 22.4469 20.4844 22.4385L20.165 23.4387L19.8456 24.439C20.3568 24.6022 20.9101 24.5741 21.4017 24.3612L20.9844 23.3977ZM20.165 23.4387L20.4848 22.4386C20.5246 22.4513 20.5233 22.4618 20.4419 22.4038C20.3521 22.3397 20.2358 22.2452 20.0282 22.0753L19.3633 22.8879L18.6984 23.7006C18.8841 23.8525 19.0629 23.9996 19.2227 24.1135C19.3909 24.2335 19.5938 24.3585 19.8453 24.4389L20.165 23.4387ZM19.3633 22.8879L20.0282 22.0753C19.6695 21.7818 19.3526 21.5215 19.0835 21.3344C18.8229 21.1532 18.4781 20.945 18.0584 20.8884L17.918 21.929L17.7775 22.9695C17.6853 22.9571 17.6907 22.9237 17.8846 23.0585C18.0701 23.1875 18.3122 23.3846 18.6984 23.7006L19.3633 22.8879ZM17.918 21.929L18.0578 20.8883C17.2676 20.7821 16.4825 21.109 16.0001 21.7414L16.835 22.3782L17.6698 23.015C17.6958 22.9809 17.7375 22.9641 17.7781 22.9696L17.918 21.929ZM16.835 22.3782L16 21.7415C15.7437 22.0776 15.6466 22.4675 15.59 22.7805C15.5317 23.1033 15.4915 23.5113 15.4454 23.9731L16.4902 24.0774L17.535 24.1817C17.5846 23.6857 17.6165 23.3754 17.6566 23.1538C17.6984 22.9223 17.7258 22.9416 17.6699 23.0149L16.835 22.3782ZM16.4902 24.0774L15.4454 23.9731C15.4188 24.24 15.4033 24.3892 15.3851 24.4979C15.3686 24.5964 15.3602 24.5901 15.3793 24.5532L16.3125 25.0344L17.2457 25.5157C17.3667 25.2812 17.4219 25.0494 17.4562 24.8453C17.4887 24.6514 17.5112 24.4209 17.535 24.1817L16.4902 24.0774ZM16.3125 25.0344L15.3794 24.5529C15.3664 24.5782 15.3449 24.5975 15.3189 24.6078L15.7051 25.5842L16.0913 26.5606C16.59 26.3633 16.9999 25.9921 17.2456 25.5159L16.3125 25.0344ZM15.7051 25.5842L15.3189 24.6078C15.3572 24.5927 15.3623 24.6016 15.263 24.6083C15.1532 24.6156 15.0033 24.6163 14.7354 24.6163V25.6663V26.7163C14.976 26.7163 15.2076 26.7167 15.4039 26.7035C15.6105 26.6896 15.8462 26.6575 16.0912 26.5606L15.7051 25.5842ZM14.7354 25.6663V24.6163H13.2617V25.6663V26.7163H14.7354V25.6663ZM13.2617 25.6663V24.6163C12.9939 24.6163 12.8439 24.6156 12.7342 24.6083C12.6347 24.6016 12.6398 24.5926 12.678 24.6078L12.292 25.5842L11.906 26.5607C12.1509 26.6575 12.3866 26.6896 12.5932 26.7035C12.7895 26.7167 13.0211 26.7163 13.2617 26.7163V25.6663ZM12.292 25.5842L12.6781 24.6078C12.6504 24.5968 12.629 24.5768 12.6168 24.5531L11.6836 25.0344L10.7504 25.5158C10.997 25.9938 11.4086 26.364 11.9059 26.5607L12.292 25.5842ZM11.6836 25.0344L12.6169 24.5533C12.6359 24.5901 12.6275 24.5963 12.611 24.498C12.5928 24.3894 12.5773 24.2404 12.5506 23.9738L11.5059 24.0784L10.4611 24.1829C10.485 24.4219 10.5075 24.6522 10.54 24.8459C10.5743 25.0498 10.6295 25.2813 10.7503 25.5156L11.6836 25.0344ZM11.5059 24.0784L12.5506 23.9738C12.5045 23.5128 12.4646 23.1046 12.4067 22.7822C12.3507 22.4699 12.2541 22.0784 11.9969 21.7413L11.1621 22.3782L10.3273 23.0151C10.2706 22.9407 10.298 22.9203 10.3397 23.1531C10.3797 23.3756 10.4114 23.6861 10.4611 24.1829L11.5059 24.0784ZM11.1621 22.3782L11.9968 21.7411C11.5134 21.1079 10.7277 20.7834 9.93935 20.8893L10.0791 21.9299L10.2189 22.9706C10.261 22.9649 10.3024 22.9824 10.3275 23.0153L11.1621 22.3782ZM10.0791 21.9299L9.93901 20.8893C9.51915 20.9458 9.17416 21.1541 8.91353 21.3353C8.64438 21.5224 8.32751 21.7828 7.96879 22.0763L8.63379 22.8889L9.29879 23.7015C9.68496 23.3855 9.92698 23.1884 10.1124 23.0594C10.3063 22.9246 10.3116 22.9581 10.2192 22.9705L10.0791 21.9299ZM8.63379 22.8889L7.96879 22.0763C7.7612 22.2462 7.64494 22.3407 7.55517 22.4047C7.47392 22.4627 7.47259 22.4523 7.51234 22.4395L7.83203 23.4397L8.15172 24.4398C8.40314 24.3595 8.60602 24.2346 8.77439 24.1146C8.93425 24.0006 9.11304 23.8535 9.29879 23.7015L8.63379 22.8889ZM7.83203 23.4397L7.51241 22.4395C7.48604 22.448 7.45653 22.4467 7.43013 22.4352L7.0127 23.3987L6.59526 24.3621C7.08697 24.5752 7.64017 24.6033 8.15165 24.4399L7.83203 23.4397ZM7.0127 23.3987L7.4303 22.4353C7.4686 22.4519 7.46625 22.4621 7.39109 22.3964C7.30809 22.3237 7.20176 22.2181 7.01199 22.0283L6.26953 22.7708L5.52707 23.5132C5.69682 23.683 5.86012 23.8471 6.00783 23.9764C6.16341 24.1126 6.35288 24.2571 6.59509 24.3621L7.0127 23.3987ZM6.26953 22.7708L7.01199 22.0283L5.97 20.9863L5.22754 21.7288L4.48508 22.4712L5.52707 23.5132L6.26953 22.7708ZM5.22754 21.7288L5.97 20.9863C5.78057 20.7969 5.67492 20.6903 5.60252 20.6075C5.53693 20.5324 5.5468 20.5296 5.56313 20.5673L4.59961 20.9846L3.63609 21.4019C3.74079 21.6437 3.88477 21.8331 4.02112 21.9892C4.15067 22.1375 4.31479 22.3009 4.48508 22.4712L5.22754 21.7288ZM4.59961 20.9846L5.56324 20.5676C5.55178 20.5411 5.55053 20.5117 5.55891 20.4854L4.55859 20.1663L3.55828 19.8471C3.39522 20.3581 3.42344 20.9106 3.63598 21.4017L4.59961 20.9846ZM4.55859 20.1663L5.55873 20.486C5.5462 20.5252 5.5361 20.5234 5.59401 20.4421C5.65791 20.3523 5.75247 20.2357 5.92213 20.0283L5.10938 19.3635L4.29662 18.6988C4.14424 18.8851 3.99725 19.064 3.88318 19.2243C3.76314 19.3929 3.63866 19.5956 3.55845 19.8465L4.55859 20.1663ZM5.10938 19.3635L5.92213 20.0283C6.21549 19.6696 6.47555 19.353 6.66246 19.084C6.84352 18.8235 7.05136 18.479 7.10795 18.0596L6.06738 17.9192L5.02681 17.7788C5.03925 17.6866 5.07268 17.6918 4.93808 17.8855C4.80932 18.0707 4.61246 18.3126 4.29662 18.6988L5.10938 19.3635ZM6.06738 17.9192L7.10799 18.0593C7.21411 17.2712 6.89055 16.4842 6.25578 16.0002L5.61914 16.8352L4.9825 17.6702C5.01463 17.6947 5.03258 17.736 5.02678 17.7791L6.06738 17.9192ZM5.61914 16.8352L6.25565 16.0001C5.91897 15.7435 5.52807 15.6468 5.21577 15.5907C4.89323 15.5327 4.4853 15.4927 4.02428 15.4467L3.91992 16.4915L3.81557 17.5363C4.3117 17.5858 4.62205 17.6176 4.84416 17.6575C5.07652 17.6993 5.05665 17.7267 4.98264 17.6703L5.61914 16.8352ZM3.91992 16.4915L4.02428 15.4467C3.75685 15.4199 3.60792 15.4047 3.49878 15.3866C3.39999 15.3701 3.40705 15.3619 3.44491 15.3814L2.96387 16.3147L2.48282 17.248C2.71811 17.3693 2.95047 17.4242 3.15398 17.4581C3.34714 17.4902 3.57753 17.5125 3.81557 17.5363L3.91992 16.4915ZM2.96387 16.3147L3.44502 15.3814C3.42161 15.3694 3.40155 15.3481 3.39047 15.3201L2.41406 15.7063L1.43766 16.0925C1.63425 16.5895 2.00426 17.0013 2.48272 17.248L2.96387 16.3147ZM2.41406 15.7063L3.39058 15.3204C3.40564 15.3585 3.39675 15.3635 3.39006 15.2643C3.38268 15.1548 3.38203 15.005 3.38203 14.7375H2.33203H1.28203C1.28203 15.1512 1.26428 15.6538 1.43755 16.0922L2.41406 15.7063ZM2.33203 14.7375H3.38203V13.262H2.33203H1.28203V14.7375H2.33203ZM2.33203 13.262H3.38203C3.38203 12.9943 3.38266 12.8446 3.39004 12.7351C3.39672 12.636 3.4056 12.6411 3.39053 12.6792L2.41406 12.2932L1.43759 11.9072C1.26421 12.3458 1.28203 12.8483 1.28203 13.262H2.33203ZM2.41406 12.2932L3.39053 12.6792C3.40146 12.6516 3.42144 12.6302 3.4452 12.618L2.96387 11.6848L2.48254 10.7516C2.0045 10.9982 1.63424 11.4098 1.4376 11.9072L2.41406 12.2932ZM2.96387 11.6848L3.44505 12.6181C3.4082 12.6371 3.40195 12.6288 3.50025 12.6122C3.60883 12.594 3.75782 12.5785 4.02448 12.5519L3.91992 11.5071L3.81536 10.4623C3.57641 10.4862 3.34611 10.5087 3.15243 10.5412C2.94847 10.5755 2.717 10.6307 2.48269 10.7516L2.96387 11.6848ZM3.91992 11.5071L4.02448 12.5519C4.48537 12.5057 4.89335 12.4658 5.21571 12.4079C5.52794 12.3518 5.91906 12.2552 6.25595 11.9982L5.61914 11.1633L4.98233 10.3285C5.05653 10.2719 5.07677 10.2992 4.84442 10.341C4.6222 10.3809 4.31192 10.4126 3.81536 10.4623L3.91992 11.5071ZM5.61914 11.1633L6.25599 11.9981C6.88976 11.5147 7.21394 10.7288 7.10803 9.94052L6.06738 10.0803L5.02673 10.2201C5.03243 10.2625 5.01493 10.3036 4.98229 10.3285L5.61914 11.1633ZM6.06738 10.0803L7.108 9.94029C7.05158 9.521 6.84405 9.17629 6.66286 8.91534C6.47582 8.64598 6.21572 8.32909 5.92205 7.97013L5.10938 8.63501L4.2967 9.29989C4.61244 9.68581 4.80931 9.92786 4.93791 10.1131C5.07235 10.3067 5.03912 10.3122 5.02676 10.2204L6.06738 10.0803ZM5.10938 8.63501L5.92205 7.97013C5.75211 7.76242 5.6576 7.64615 5.59353 7.55632C5.53553 7.47499 5.54601 7.47372 5.55875 7.51357L4.55859 7.83325L3.55844 8.15294C3.63883 8.40444 3.76377 8.60735 3.88378 8.77563C3.99772 8.93541 4.14478 9.11419 4.2967 9.29989L5.10938 8.63501ZM4.55859 7.83325L5.55883 7.51382C5.55035 7.48729 5.55171 7.45756 5.56308 7.43131L4.59961 7.01392L3.63614 6.59652C3.42312 7.08823 3.39511 7.6415 3.55836 8.15268L4.55859 7.83325ZM4.59961 7.01392L5.56291 7.43172C5.54633 7.46993 5.53616 7.46748 5.602 7.39227C5.67468 7.30925 5.78033 7.20288 5.97 7.01321L5.22754 6.27075L4.48508 5.52829C4.31532 5.69805 4.15122 5.86133 4.02189 6.00907C3.88573 6.16462 3.74131 6.35404 3.63631 6.59611L4.59961 7.01392ZM5.22754 6.27075L5.97 7.01321L7.01199 5.97122L6.26953 5.22876L5.52707 4.4863L4.48508 5.52829L5.22754 6.27075ZM6.26953 5.22876L7.01199 5.97122C7.20166 5.78155 7.30803 5.6759 7.39105 5.60322C7.46626 5.53738 7.46871 5.54755 7.4305 5.56413L7.0127 4.60083L6.59489 3.63753C6.35282 3.74253 6.1634 3.88695 6.00785 4.02311C5.86011 4.15244 5.69683 4.31654 5.52707 4.4863L6.26953 5.22876ZM7.0127 4.60083L7.43009 5.5643C7.45634 5.55293 7.48607 5.55157 7.5126 5.56005L7.83203 4.55981L8.15146 3.55958C7.64028 3.39633 7.08701 3.42434 6.5953 3.63736L7.0127 4.60083ZM7.83203 4.55981L7.51235 5.55997C7.4725 5.54723 7.47376 5.53675 7.5551 5.59476C7.64493 5.65882 7.7612 5.75333 7.96891 5.92327L8.63379 5.1106L9.29867 4.29792C9.11297 4.146 8.93419 3.99894 8.77441 3.885C8.60613 3.76499 8.40322 3.64005 8.15171 3.55966L7.83203 4.55981ZM8.63379 5.1106L7.96891 5.92327C8.32787 6.21694 8.64475 6.47705 8.91412 6.66408C9.17507 6.84527 9.51978 7.0528 9.93906 7.10922L10.0791 6.0686L10.2191 5.02798C10.311 5.04034 10.3055 5.07357 10.1118 4.93913C9.92664 4.81053 9.68459 4.61366 9.29867 4.29792L8.63379 5.1106ZM10.0791 6.0686L9.93929 7.10925C10.7276 7.21516 11.5134 6.89098 11.9969 6.25721L11.1621 5.62036L10.3273 4.98351C10.3024 5.01615 10.2613 5.03365 10.2189 5.02795L10.0791 6.0686ZM11.1621 5.62036L11.997 6.25718C12.2539 5.92028 12.3506 5.52916 12.4067 5.21693C12.4646 4.89457 12.5045 4.48659 12.5506 4.0257L11.5059 3.92114L10.4611 3.81658C10.4114 4.31314 10.3797 4.62342 10.3397 4.84564C10.298 5.07799 10.2707 5.05775 10.3273 4.98355L11.1621 5.62036ZM11.5059 3.92114L12.5506 4.0257C12.5773 3.75904 12.5928 3.61005 12.611 3.50147C12.6275 3.40317 12.6358 3.40942 12.6168 3.44627L11.6836 2.96509L10.7503 2.48391C10.6295 2.71822 10.5743 2.94969 10.54 3.15365C10.5075 3.34733 10.485 3.57763 10.4611 3.81658L11.5059 3.92114ZM11.6836 2.96509L12.6168 3.44642C12.629 3.42266 12.6504 3.40268 12.678 3.39175L12.292 2.41528L11.906 1.43882C11.4085 1.63546 10.997 2.00572 10.7504 2.48376L11.6836 2.96509ZM12.292 2.41528L12.678 3.39176C12.6399 3.40682 12.6348 3.39794 12.7339 3.39126C12.8434 3.38388 12.9931 3.38325 13.2607 3.38325V2.33325V1.28325C12.8471 1.28325 12.3446 1.26543 11.906 1.43881L12.292 2.41528ZM13.2607 2.33325V3.38325H14.7354V2.33325V1.28325H13.2607V2.33325ZM13.999 9.33325V8.28325C10.8418 8.28325 8.28203 10.843 8.28203 14.0002H9.33203H10.382C10.382 12.0028 12.0016 10.3833 13.999 10.3833V9.33325ZM9.33203 14.0002L8.28203 14.0003C8.28219 17.1576 10.8421 19.7163 13.999 19.7163V18.6663V17.6163C12.0014 17.6163 10.3821 15.9973 10.382 14.0002L9.33203 14.0002ZM13.999 18.6663L13.9991 19.7163C17.1559 19.7159 19.7149 17.1573 19.715 14.0003L18.665 14.0002L17.615 14.0002C17.6149 15.9973 15.9962 17.6161 13.9989 17.6163L13.999 18.6663ZM18.665 14.0002H19.715C19.715 10.8434 17.1562 8.28358 13.9991 8.28325L13.999 9.33325L13.9989 10.3833C15.996 10.3835 17.615 12.0028 17.615 14.0002H18.665Z" fill="#FDFEFF"/>
</svg>
