<svg width="28" height="28" viewBox="0 0 28 28" fill="none" xmlns="http://www.w3.org/2000/svg">
<path fill-rule="evenodd" clip-rule="evenodd" d="M13.9989 2.33325C11.1656 2.33325 8.83625 3.30804 7.23511 5.14745C5.65608 6.96145 4.89498 9.48911 4.89498 12.4178L4.89499 13.3459C4.89499 16.3962 4.02504 18.2023 2.78598 19.3696C2.30017 19.8272 2.24975 20.4605 2.4234 20.9264C2.60001 21.4003 3.08399 21.8838 3.81213 21.8838H24.1857C24.9139 21.8838 25.3979 21.4003 25.5745 20.9264C25.7481 20.4605 25.6977 19.8272 25.2119 19.3696C23.9728 18.2023 23.1029 16.3962 23.1029 13.3459L23.1029 12.4178C23.1029 9.48911 22.3418 6.96146 20.7628 5.14745C19.1616 3.30804 16.8323 2.33325 13.9989 2.33325ZM7.18689 12.4178C7.18689 9.83807 7.85824 7.88025 8.98492 6.5859C10.0895 5.31695 11.7392 4.56052 13.9989 4.56052C16.2587 4.56052 17.9084 5.31695 19.0129 6.5859C20.1396 7.88025 20.811 9.83807 20.811 12.4178L20.811 13.3459C20.811 16.022 21.407 18.0815 22.4901 19.6565H5.50779C6.59082 18.0815 7.18689 16.022 7.18689 13.3459L7.18689 12.4178Z" fill="white"/>
<path d="M11.4524 24.6058C10.8195 24.6058 10.3064 25.1044 10.3064 25.7194C10.3064 26.3345 10.8195 26.8331 11.4524 26.8331H16.5455C17.1784 26.8331 17.6915 26.3345 17.6915 25.7194C17.6915 25.1044 17.1784 24.6058 16.5455 24.6058H11.4524Z" fill="white"/>
</svg>
