<svg width="166" height="158" viewBox="0 0 166 158" fill="none" xmlns="http://www.w3.org/2000/svg">
<rect width="165.577" height="157.692" fill="white"/>
<rect width="165.577" height="157.692" fill="#5397FA"/>
<path d="M139.07 27.96C140.343 31.5342 144.28 34.1387 148.94 34.1387C153.571 34.1387 157.488 31.5674 158.786 28.0283C158.459 43.7313 149.89 56.8705 139.866 67.5166C137.32 70.2204 134.595 72.8501 131.768 75.4043C136.777 91.4115 131.855 109.294 124.102 122.089C118.238 131.765 109.905 140.307 100.401 144.829C90.5464 149.518 78.541 150.076 68.5195 141.539C63.0622 136.89 59.1909 131.081 58.6953 124.021C58.2163 117.196 61.0535 111.265 64.4229 106.581C70.8856 97.5973 82.6572 88.7948 93.5254 80.6543C97.7679 77.4765 102.019 74.3012 106.14 71.0908C105.856 70.8386 105.567 70.5892 105.268 70.3467C101.5 67.2916 96.197 66.1985 88.6572 68.2051C80.9672 70.2518 71.9646 75.3491 62.8428 83.0869C44.5446 98.6088 28.2198 122.64 22.7031 145.555L3.53906 140.941C10.1995 113.275 29.1884 85.7869 50.0908 68.0557C60.5691 59.1671 72.1393 52.204 83.5869 49.1572C95.1849 46.0705 107.586 46.8509 117.682 55.0361C118.966 56.0775 120.162 57.1533 121.274 58.2588C122.746 56.8563 124.163 55.4394 125.515 54.0039C134.087 44.8992 138.77 36.3852 139.07 27.96ZM114.095 89.8467C111.101 92.126 108.158 94.322 105.343 96.4307C93.5389 105.272 84.72 112.122 80.4248 118.093C78.4153 120.886 78.3315 122.258 78.3584 122.641C78.3688 122.789 78.4333 124.091 81.3018 126.534C83.9256 128.769 87.1458 129.307 91.9326 127.029C97.0706 124.584 102.796 119.213 107.244 111.873C111.681 104.551 114.074 96.8835 114.095 89.8467ZM149.077 7.88281C154.768 7.88283 159.381 12.496 159.381 18.1865C159.381 23.8771 154.768 28.4902 149.077 28.4902C143.387 28.4902 138.773 23.8771 138.773 18.1865C138.773 12.496 143.387 7.88281 149.077 7.88281Z" fill="#FDFEFF"/>
</svg>
